<?xml version="1.0" encoding="utf-8"?>
<!-- Generator: Adobe Illustrator 18.1.1, SVG Export Plug-In . SVG Version: 6.00 Build 0)  -->
<!DOCTYPE svg PUBLIC "-//W3C//DTD SVG 1.1//EN" "http://www.w3.org/Graphics/SVG/1.1/DTD/svg11.dtd">
<svg version="1.1" id="logo-bianco" xmlns="http://www.w3.org/2000/svg" xmlns:xlink="http://www.w3.org/1999/xlink" x="0px"
	 y="0px" width="100px" height="15px" viewBox="-50 50.5 100 15" enable-background="new -50 50.5 100 15" xml:space="preserve">
<g>
	<g>
		<path fill="#FFFFFF" d="M40.7,54.9c0,0,0.2-4.1-4.1-4.1h-5.8c-4.3,0-4.1,4.1-4.1,4.1V61c0,0-0.2,4.1,4.1,4.1h5.7
			c4.3,0,4.1-4.1,4.1-4.1L40.7,54.9L40.7,54.9z M35.8,62.3h-4.2c-1.7,0-1.6-1.4-1.6-1.4v-5.8c0,0,0-1.4,1.6-1.4h4.2
			c1.7,0,1.6,1.4,1.6,1.4v5.8C37.4,60.9,37.4,62.3,35.8,62.3z"/>
		<polygon fill="#FFFFFF" points="1.7,50.9 1.7,62.3 1.3,62.3 -3.4,50.9 -9,50.9 -9,65.1 -5.8,65.1 -5.8,53.7 -5.5,53.7 -0.8,65.1 
			4.9,65.1 4.9,50.9 		"/>
		<path fill="#FFFFFF" d="M22.9,59.9h-3.3v1c0,0,0,1.4-1.6,1.4h-4.2c-1.7,0-1.6-1.4-1.6-1.4v-5.8c0,0,0-1.4,1.6-1.4H18
			c1.7,0,1.6,1.4,1.6,1.4v1h3.3v-1.2c0,0,0.2-4-4.1-4h-5.7C8.8,50.9,9,55,9,55v6.1c0,0-0.2,4.1,4.1,4.1h5.7c4.3,0,4.1-4.1,4.1-4.1
			V59.9z"/>
		<path fill="#FFFFFF" d="M-38.8,58.1v-0.3c2.1-0.8,1.9-3.1,1.9-3.1c0-4-4.1-3.9-4.1-3.9h-9v14.3h9.1c0,0,4.1,0.1,4.1-3.9
			C-36.8,61.2-36.6,58.9-38.8,58.1z M-41.6,62.3h-5.2v-3c0,0,4.8,0,5.3,0c0.4,0,1.5,0,1.5,1.5C-40,62.4-41.6,62.3-41.6,62.3z
			 M-41.6,56.7c-0.4,0-5.2,0-5.2,0v-3h5.1c0,0,1.6-0.1,1.6,1.4S-41.2,56.7-41.6,56.7z"/>
		<rect x="-33" y="50.9" fill="#FFFFFF" width="3.3" height="14.3"/>
		<path fill="#FFFFFF" d="M-17.1,50.9h-4.4L-27,65.1h3.4l1.1-3h6.3l1.1,3h3.4L-17.1,50.9z M-21.7,59.6l2.1-5.9h0.3l2.1,5.9H-21.7z"
			/>
		<rect x="44" y="62" fill="#FFFFFF" width="3.1" height="3.1"/>
	</g>
	<g>
		<path fill="#FFFFFF" d="M48.7,50.9h-3.5c-0.7,0-1.3,0.6-1.3,1.3V56c0,0.7,0.6,1.3,1.3,1.3h3.5c0.7,0,1.3-0.6,1.3-1.3v-3.8
			C50,51.4,49.5,50.9,48.7,50.9z M49.5,55.9c0,0.4-0.4,0.8-0.8,0.8h-3.5c-0.4,0-0.8-0.4-0.8-0.8v-3.8c0-0.4,0.4-0.8,0.8-0.8h3.5
			c0.4,0,0.8,0.4,0.8,0.8V55.9z"/>
		<path fill="#FFFFFF" d="M47.8,54.3L47.8,54.3c0.5-0.2,0.5-0.5,0.5-1c0-0.7-0.2-0.9-0.9-0.9h-1.6c0,0.1,0,3.1,0,3.2h0.5
			c0-0.1,0-1.1,0-1.1h1c0.3,0,0.4,0.2,0.4,0.5c0,0,0,0.5,0,0.6h0.5V55C48.3,54.5,48.2,54.4,47.8,54.3z M47.2,54.1h-0.9v-1.2l0,0h0.9
			c0.5,0,0.6,0.1,0.6,0.6C47.8,53.9,47.7,54.1,47.2,54.1z"/>
	</g>
</g>
</svg>
